<svg xmlns="http://www.w3.org/2000/svg" version="1.1" xmlns:xlink="http://www.w3.org/1999/xlink" xmlns:svgjs="http://svgjs.dev/svgjs" width="128" height="128" viewBox="0 0 128 128"><g transform="matrix(0.44782608695652176,0,0,0.44782608695652176,35.33913043478261,12.5)"><svg viewBox="0 0 125 225" data-background-color="#ffffff" preserveAspectRatio="xMidYMid meet" height="230" width="128" xmlns="http://www.w3.org/2000/svg" xmlns:xlink="http://www.w3.org/1999/xlink"><g id="tight-bounds" transform="matrix(1,0,0,1,0,0)"><svg viewBox="0 0 125 225" height="225" width="125"><g><svg></svg></g><g><svg viewBox="0 0 125 225" height="225" width="125"><g><path d="M8.188 130.945l1.455 1.82-0.727-2.366c-0.182-1.092-1.456 0.182-0.728 0.546M9.825 129.854c0.546 0.91 1.092 1.82 1.092 2.729 0 1.274 1.092 1.82 2.001 2.183-1.274-1.456-2.001-5.459-3.093-4.912M79.694 52.707c3.093 0 6.004-0.364 9.28 0.363 8.006 2.001 14.738 6.004 19.287 11.645l12.736 20.379c0.546 5.095 1.638 10.735 1.456 16.921 1.274 0 1.092-1.82 2.547-2.183-1.456 3.639-2.183 8.188-2.547 13.464-0.91-2.911 0-7.278 0.182-9.643-1.274 2.001-2.001 0.546-2.002-0.364 0.182-1.456-0.546-1.274-1.092-1.82-2.001-1.82-3.275-3.821-4.73-6.914 0.91-2.365 1.092-5.822-1.82-7.642-0.91-0.546-2.001-1.456-2.547-2.911-0.728-2.001-2.001-4.367-1.638-7.46 0.182-0.91-2.729 2.001-4.366 0.728-7.096-4.913-14.192-10.553-22.744-15.284-4.549 0-7.824-1.638-9.462-3.639-1.456-1.82-0.364-4.185 1.82-4.367 1.274 0 2.729-0.364 3.821 0.364 0.182-0.728 0.91-1.638 1.819-1.637M61.681 48.522l0.364 0.182c1.82 0.364 2.729 2.911 4.731 2.001 0 1.274 0.182 2.547-0.182 3.457-0.546 1.456-2.183 1.456-3.457 1.456-12.191-0.728-19.287 4.367-26.747 8.733-2.001 1.274-4.185 2.183-5.822 3.821-7.824 7.278-16.376 14.01-18.377 27.475l-1.638 14.92c-0.182 1.638-2.001 3.275-1.637 5.276l1.273 8.916c-1.274-1.274-2.001 0.364-1.637 1.092 0.182 0.546 0.91 2.365 2.001 0.727 1.456 2.729 2.911 8.006 4.913 10.372 6.186 7.278 14.192 13.828 20.742 20.378 1.638-0.364 2.911-0.364 3.275-1.456 0.546 1.092-0.546 2.183-1.455 2.366 2.911 1.82 6.186 3.457 10.553 3.821 5.64 0.364 10.917 1.274 15.829 2.547 2.547-0.728 5.095-1.092 7.824-1.274 0.91 0 1.456-1.456 2.548-1.819l0.182-1.82c1.092 1.638 0.91-0.546 0.182-1.637 1.274 1.092 1.638 2.001 2.183 2.729 0-0.546 1.456-2.547 1.456-0.182l0.363-2.365c0.546-0.364 0.728 2.001 1.274 0.364 0.546-1.638 1.638-0.364 2.729-0.91-0.364 0.728-0.182 2.183 1.092 1.274l1.456-1.274c0.91 2.183 2.365 1.274 3.093 0.91 8.006-5.095 16.012-11.099 23.653-17.104l-0.182 2.366 0.91-2.911c0.91 0.91 1.638 0.182 2.002-0.364 1.092-1.82 2.547-3.639 4.912-5.277-2.911 7.824-6.368 14.01-10.735 19.105l-1.819 2.183c0 1.274-0.364 2.911-1.82 3.093-0.728 0.182-2.183-0.364-3.275 0.728-0.546 0.728 1.274 2.183-0.182 1.092-1.274-0.91-2.547 0-4.003 0.364-1.092 0.364 0.728 1.456 1.092 2.183 0.364 0.728 0.728 1.456 0.546 2.366l-2.002-2.184c-2.365 1.274-3.821 3.639-5.822 5.459-0.91 0.728-0.546 2.001-0.546 3.093-1.274 0-2.729-0.364-3.457 0.364-0.546 0.728-0.364 1.82-0.364 2.911-1.82-0.182-2.001-2.911-3.639-2.365-1.638 0.364-3.457 0.546-4.913 1.455 1.092 2.183-1.82 0.91-1.455 1.274-2.729-1.638-5.095-2.911-8.006-1.82-6.186-2.001-13.828-1.092-19.469-0.364 0-0.91 0.182-1.82-0.182-2.001-0.364 0.91-1.456 0.546-1.273 0.546-3.457-2.365-6.914-3.821-10.553-5.823-3.275 0.364-6.368-1.274-7.278-2.183-2.547-2.365-5.459-1.092-7.824-1.638-5.095-1.274-6.914-6.55-7.46-10.189-0.364-1.82-1.82-2.547-2.366-2.365-2.365-7.642-6.004-14.556-8.915-21.652-0.728-1.82-0.546-3.639-0.546-5.641 0.91 0.364 1.82 0.182 1.638-1.091-0.91-6.004-3.093-10.553-5.459-14.92 1.274-6.186 1.456-13.464 4.367-18.923 2.547-4.913 7.278-7.46 10.553-11.645 1.092-1.456 1.092-3.457 2.183-4.731 3.639-3.639 7.278-7.46 11.281-10.735 1.82-1.456 4.003 0 6.732-0.546 0.91-3.275 4.549-6.186 8.006-5.276 1.456 0.364 4.367-3.457 5.277-3.821 1.456-0.546 0.728 1.456 0.728 2.729 3.457-2.729 8.188-4.185 12.554-5.822" fill="#ff1200" fill-rule="nonzero" stroke="none" stroke-width="1" stroke-linecap="butt" stroke-linejoin="miter" stroke-miterlimit="10" stroke-dasharray="" stroke-dashoffset="0" font-family="none" font-weight="none" font-size="none" text-anchor="none" style="mix-blend-mode: normal" data-fill-palette-color="tertiary"></path></g><g transform="matrix(1,0,0,1,39.325,78.2251503006012)"><svg viewBox="0 0 46.35 68.54969939879759" height="68.54969939879759" width="46.35"><g><svg viewBox="0 0 46.35 68.54969939879759" height="68.54969939879759" width="46.35"><g><svg viewBox="0 0 46.35 68.54969939879759" height="68.54969939879759" width="46.35"><g><svg viewBox="0 0 46.35 68.54969939879759" height="68.54969939879759" width="46.35"><g><svg viewBox="0 0 46.35 68.54969939879759" height="68.54969939879759" width="46.35"><g transform="matrix(1,0,0,1,0,0)"><svg width="46.35" viewBox="1.85 -35.85 24.950000000000003 36.9" height="68.54969939879759" data-palette-color="#ff1a0a"><path d="M13.4-35.85Q18.15-35.85 21.23-33.98 24.3-32.1 26-30.4L26-30.4Q26.2-30.2 26.2-29.95L26.2-29.95Q26.2-29.8 26.08-29.58 25.95-29.35 25.9-29.25L25.9-29.25Q25.65-28.9 25.08-28.03 24.5-27.15 24.15-26.75L24.15-26.75Q24-26.55 23.83-26.33 23.65-26.1 23.53-26 23.4-25.9 23.15-25.9L23.15-25.9Q23.05-25.9 22.68-26.23 22.3-26.55 21.95-26.8L21.95-26.8Q19.95-28.55 18.05-29.8 16.15-31.05 14.4-31.05L14.4-31.05Q13-31.05 12.1-30.43 11.2-29.8 11.2-27.6L11.2-27.6Q11.2-25.45 12.8-24.25 14.4-23.05 17.05-21.95L17.05-21.95Q17.3-21.85 19.98-20.7 22.65-19.55 24.73-16.3 26.8-13.05 26.8-8.55L26.8-8.55Q26.8-3.75 23.2-1.35 19.6 1.05 13.25 1.05L13.25 1.05Q6.05 1.05 4.1-1.73 2.15-4.5 2.05-4.6L2.05-4.6Q1.85-4.85 1.85-5.1L1.85-5.1Q1.85-5.25 2.25-5.75L2.25-5.75Q2.9-6.65 4.15-7.9L4.15-7.9Q4.35-8.1 4.55-8.1L4.55-8.1Q4.8-8.1 5.1-7.73 5.4-7.35 5.6-7.15L5.6-7.15Q8.55-4.2 12.3-4.2L12.3-4.2Q14.2-4.2 15.6-4.93 17-5.65 17-7.65L17-7.65Q17-11.1 11.55-15L11.55-15Q10.65-15.6 9.85-16L9.85-16Q7.75-17.15 6.25-18.25 4.75-19.35 3.6-21.15 2.45-22.95 2.45-25.35L2.45-25.35Q2.45-28.35 4.33-30.75 6.2-33.15 8.83-34.5 11.45-35.85 13.4-35.85L13.4-35.85Z" opacity="1" transform="matrix(1,0,0,1,0,0)" fill="#ff1a0a" class="undefined-text-0" data-fill-palette-color="primary" id="text-0"></path></svg></g></svg></g></svg></g></svg></g><g></g></svg></g></svg></g></svg></g><defs></defs></svg><rect width="125" height="225" fill="none" stroke="none" visibility="hidden"></rect></g></svg></g></svg>